# xmcd
#
# Track frame offsets:
#	150
#	18647
#	43815
#	60382
#	80560
#	94357
#	115625
#	140282
#	158852
#	179947
#
# Disc length: 2602 seconds
# Revision: 3
# Processed by: cddbd v1.5.2PL0 Copyright (c) Steve Scherf et al.
# Submitted via: dBpowerAMP V12.0
#
DISCID=880a280a
DTITLE=Roomful of Blues - Turn it On, Turn it up
DYEAR=1996
DGENRE=Blues
TTITLE0=Blind Love
TTITLE1=I Left my Baby
TTITLE2=Turn it On, Turn it up
TTITLE3=Angry Woman
TTITLE4=If You Know it
TTITLE5=Slam Jam
TTITLE6=Danger Zone
TTITLE7=Gettin' Out
TTITLE8=One Bayou Drive
TTITLE9=Marie, Marie
EXTD=
EXTT0=
EXTT1=
EXTT2=
EXTT3=
EXTT4=
EXTT5=
EXTT6=
EXTT7=
EXTT8=
EXTT9=
PLAYORDER=
